<?xml version='1.0' encoding='UTF-8'?>
<svg xmlns="http://www.w3.org/2000/svg" font-family="ConsolasFallback,Consolas,monospace" width="985px" height="530px" font-size="16px">
<style>
@font-face {
src: local('Consolas'), local('Consolas Bold');
font-family: 'ConsolasFallback';
font-display: swap;
-webkit-size-adjust: 109%;
size-adjust: 109%;
}
.key {fill: #ffa657;}
.value {fill: #a5d6ff;}
.currentWorkColor {fill: #8b949e;}
.pastWorkColor {fill: #616e7f;}
.cc {fill: #616e7f;}
text, tspan {white-space: pre;}

</style>
<rect width="985px" height="530px" fill="#161b22" rx="15"/>
<text x="15" y="30" fill="#c9d1d9" class="ascii">
<!-- image size (375,500) maybe add tarot card or something here in the future-->
   <tspan x="15" y="30">           .                   .        </tspan>
   <tspan x="15" y="50">.                       ..        .     </tspan>
   <tspan x="15" y="70">               .                        </tspan>
   <tspan x="15" y="90">                    .                   </tspan>
   <tspan x="15" y="110">                                        </tspan>
   <tspan x="15" y="130">                 .                      </tspan>
   <tspan x="15" y="150">         .                              </tspan>
   <tspan x="15" y="170">         .        .                     </tspan>
   <tspan x="15" y="190">    .            +..            .       </tspan>
   <tspan x="15" y="210">                  +  ..                 </tspan>
   <tspan x="15" y="230">                .   .                   </tspan>
   <tspan x="15" y="250">                      .                 </tspan>
   <tspan x="15" y="270">                +   * +          .      </tspan>
   <tspan x="15" y="290">                  +     .               </tspan>
   <tspan x="15" y="310">                     . .                </tspan>
   <tspan x="15" y="330">                   .  .                 </tspan>
   <tspan x="15" y="350">.              .                  .     </tspan>
   <tspan x="15" y="370">                                        </tspan>
   <tspan x="15" y="390">                     .                  </tspan>
   <tspan x="15" y="410">                             .          </tspan>
   <tspan x="15" y="430">       .                    .       .   </tspan>
   <tspan x="15" y="450">                  .        .   .        </tspan>
   <tspan x="15" y="470">                                        </tspan>
   <tspan x="15" y="490">                   .                    </tspan>
   <tspan x="15" y="510">                                        </tspan>
</text>
<path d="M 15 530 L 15 528 L 30 527 L 44 525 L 58 522 L 72 518 L 86 512 L 100 504 L 114 493 L 126 482 L 138 489 L 150 478 L 162 467 L 174 477 L 186 464 L 198 480 L 210 460 L 222 474 L 234 456 L 246 480 L 258 461 L 270 487 L 282 468 L 294 494 L 308 482 L 324 491 L 340 499 L 356 506 L 372 512 L 390 515 L 420 517 L 455 513 L 490 516 L 530 510 L 575 517 L 620 511 L 668 518 L 720 512 L 774 519 L 830 514 L 888 520 L 940 516 L 970 522 L 970 530 Z" fill="#8b949e"/>
<line x1="398" y1="204" x2="398" y2="284" stroke="#616e7f" stroke-width="2"/>
<circle cx="398" cy="204" r="4" class="currentWorkColor"/>
<circle cx="398" cy="237" r="4" class="pastWorkColor"/>
<circle cx="398" cy="284" r="4" class="pastWorkColor"/>
<text x="390" y="30" fill="#c9d1d9">
    <tspan x="390" y="30">steven@raintrout</tspan> ——————————————————————————————————————————
    <tspan x="390" y="50" class="cc">. </tspan><tspan class="key">OS</tspan>:<tspan class="cc"> .......................... </tspan><tspan class="value">OS X 14, Linux, Android 17</tspan>
    <tspan x="390" y="70" class="cc">. </tspan><tspan class="key">Uptime</tspan>:<tspan class="cc"> .................................... </tspan><tspan class="value">28y 06mo 07d</tspan>
    <tspan x="390" y="90" class="cc">. </tspan><tspan class="key">Host</tspan>:<tspan class="cc"> ....................................... </tspan><tspan class="value">Synthpop.ai</tspan>
    <tspan x="390" y="110" class="cc">. </tspan><tspan class="key">Kernel</tspan>:<tspan class="cc"> .............................. </tspan><tspan class="value">Senior AI Engineer</tspan>
    <tspan x="390" y="130" class="cc">. </tspan><tspan class="key">IDE</tspan>:<tspan class="cc"> .......................... </tspan><tspan class="value">Alacritty, VSCode, Claude</tspan>
    <tspan x="390" y="150" class="cc">. </tspan><tspan class="key">Languages</tspan>:<tspan class="cc"> ............................ </tspan><tspan class="value">Python, Golang, C</tspan>
    <tspan x="390" y="170"></tspan>
    <tspan x="390" y="190">- Work</tspan> ————————————————————————————————————————————————————
    <tspan x="410" y="210"><tspan class="key">synthpop</tspan></tspan><tspan class="cc"> ............ </tspan><tspan class="value">information extraction and analysis</tspan>
    <tspan x="410" y="230" class="cc" xml:space="preserve">                                    </tspan><tspan class="value">for medical workflows</tspan>
    <tspan x="410" y="250"><tspan class="key">thinkiq</tspan></tspan><tspan class="cc"> ..................... </tspan><tspan class="value">edge computer vision and ml</tspan>
    <tspan x="410" y="270"><tspan class="key">atollogy</tspan></tspan><tspan class="cc" xml:space="preserve">                       </tspan><tspan class="value">for manufacturing and yard</tspan>
    <tspan x="390" y="290"></tspan>
    <tspan x="390" y="310">- Hobbies</tspan> —————————————————————————————————————————————————
    <tspan x="390" y="330" class="cc">. </tspan><tspan class="key">Outdoors</tspan>:<tspan class="cc"> .............. </tspan><tspan class="value">Backpacking, Photography, Hiking</tspan>
    <tspan x="390" y="350" class="cc">. </tspan><tspan class="key">Games</tspan>:<tspan class="cc"> ................................... </tspan><tspan class="value">MtG, DnD, Misc</tspan>
    <tspan x="390" y="370" class="cc">. </tspan><tspan class="key">Other</tspan>:<tspan class="cc"> ............................. </tspan><tspan class="value">Running, Astro, HEMA</tspan>
    <tspan x="390" y="390"></tspan>
    <tspan x="390" y="410">- Stats</tspan> ———————————————————————————————————————————————————
    <tspan x="390" y="430" class="cc">. </tspan><tspan class="key">Miles (hiked)</tspan>:<tspan class="cc"> .... </tspan><tspan class="value">184.5</tspan><tspan class="cc" xml:space="preserve">     . </tspan><tspan class="key">Miles (ran)</tspan>:<tspan class="cc"> ...... </tspan><tspan class="value">565.1</tspan>
    <tspan x="390" y="450" class="cc">. </tspan><tspan class="key">Elevation Gain</tspan>:<tspan class="cc"> ... </tspan><tspan class="value">79324</tspan><tspan class="cc" xml:space="preserve">     . </tspan><tspan class="key">YTD Activities</tspan>:<tspan class="cc"> ..... </tspan><tspan class="value">116</tspan>
    <tspan x="390" y="470" class="cc">. </tspan><tspan class="key">Last Activity</tspan>:<tspan class="cc"> .................. </tspan><tspan class="value">Ohlone Wilderness Trail</tspan>
    <tspan x="390" y="490" class="cc">. </tspan><tspan class="key">Current Objective</tspan>:<tspan class="cc"> .......................... </tspan><tspan class="value">Mount Baker</tspan>
    <tspan x="390" y="510"></tspan>
</text>
</svg>
